<svg width="20" height="19" viewBox="0 0 20 19" fill="none" xmlns="http://www.w3.org/2000/svg">
<circle cx="10" cy="9.5" r="9.5" fill="#335B6B"/>
<path fill-rule="evenodd" clip-rule="evenodd" d="M9.60528 5.79386C9.79032 5.58889 10.1065 5.57273 10.3115 5.75778L13.706 8.82229C13.811 8.9171 13.871 9.05195 13.871 9.19343C13.871 9.3349 13.811 9.46976 13.706 9.56456L10.3115 12.6291C10.1065 12.8141 9.79032 12.798 9.60528 12.593C9.42023 12.388 9.43639 12.0719 9.64136 11.8868L12.071 9.69343H6.01611C5.73997 9.69343 5.51611 9.46957 5.51611 9.19343C5.51611 8.91728 5.73997 8.69343 6.01611 8.69343H12.071L9.64136 6.50004C9.43639 6.315 9.42023 5.99883 9.60528 5.79386Z" fill="white"/>
</svg>
