<svg width="27" height="24" viewBox="0 0 27 24" fill="none" xmlns="http://www.w3.org/2000/svg">
<path fill-rule="evenodd" clip-rule="evenodd" d="M0.791016 1C0.791016 0.447715 1.23873 0 1.79102 0H5.57291C6.05815 0 6.47337 0.348357 6.5577 0.826215L6.91235 2.83594H24.851C25.0688 2.83589 25.2841 2.88413 25.481 2.97719C25.6781 3.07036 25.852 3.20612 25.9903 3.37466C26.1285 3.5432 26.2276 3.74034 26.2805 3.95185C26.3333 4.1633 26.3385 4.38384 26.2957 4.59757L24.5939 13.1068C24.527 13.4408 24.3465 13.7414 24.083 13.9573C23.8195 14.1731 23.4893 14.2909 23.1487 14.2907L23.1424 14.2907L8.91615 14.1908L9.24831 16.0731H23.5369C24.0892 16.0731 24.5369 16.5208 24.5369 17.0731C24.5369 17.6253 24.0892 18.0731 23.5369 18.0731H8.40933C7.92409 18.0731 7.50888 17.7247 7.42455 17.2468L4.73393 2H1.79102C1.23873 2 0.791016 1.55228 0.791016 1ZM8.56276 12.1883L22.7181 12.2876L24.2084 4.83594H7.26529L8.56276 12.1883ZM11.5689 19.8057C10.4797 19.8057 9.59668 20.6887 9.59668 21.7779C9.59668 22.8671 10.4797 23.7501 11.5689 23.7501C12.6581 23.7501 13.5411 22.8671 13.5411 21.7779C13.5411 20.6887 12.6581 19.8057 11.5689 19.8057ZM20.1246 19.8057C19.0353 19.8057 18.1523 20.6887 18.1523 21.7779C18.1523 22.8671 19.0353 23.7501 20.1246 23.7501C21.2138 23.7501 22.0968 22.8671 22.0968 21.7779C22.0968 20.6887 21.2138 19.8057 20.1246 19.8057Z" fill="white"/>
</svg>
